{
  "accessors": [
    {
      "bufferView": 2,
      "componentType": 5126,
      "count": 38288,
      "max": [
        1.3497899770736694,
        1.2599459886550903,
        6.0225830078125
      ],
      "min": [
        -1.3497899770736694,
        0.003587566316127777,
        -6.0225830078125
      ],
      "type": "VEC3"
    },
    {
      "bufferView": 2,
      "byteOffset": 459456,
      "componentType": 5126,
      "count": 38288,
      "max": [
        1.0,
        1.0,
        1.0
      ],
      "min": [
        -1.0,
        -1.0,
        -1.0
      ],
      "type": "VEC3"
    },
    {
      "bufferView": 3,
      "componentType": 5126,
      "count": 38288,
      "max": [
        1.0,
        1.0,
        1.0,
        1.0
      ],
      "min": [
        -1.0,
        -1.0,
        -1.0,
        -1.0
      ],
      "type": "VEC4"
    },
    {
      "bufferView": 1,
      "componentType": 5126,
      "count": 38288,
      "max": [
        1.998046875,
        0.9978777170181274
      ],
      "min": [
        0.001953125,
        0.001953125
      ],
      "type": "VEC2"
    },
    {
      "bufferView": 0,
      "componentType": 5125,
      "count": 125124,
      "type": "SCALAR"
    },
    {
      "bufferView": 2,
      "byteOffset": 918912,
      "componentType": 5126,
      "count": 3428,
      "max": [
        1.2999000549316406,
        3.7845849990844727,
        5.187935829162598
      ],
      "min": [
        -1.2999000549316406,
        1.2550690174102783,
        -5.200911998748779
      ],
      "type": "VEC3"
    },
    {
      "bufferView": 2,
      "byteOffset": 960048,
      "componentType": 5126,
      "count": 3428,
      "max": [
        1.0,
        1.0,
        1.0
      ],
      "min": [
        -1.0,
        -1.0,
        -1.0
      ],
      "type": "VEC3"
    },
    {
      "bufferView": 3,
      "byteOffset": 612608,
      "componentType": 5126,
      "count": 3428,
      "max": [
        1.0,
        1.0,
        1.0,
        1.0
      ],
      "min": [
        -1.0,
        -1.0,
        -1.0,
        -1.0
      ],
      "type": "VEC4"
    },
    {
      "bufferView": 1,
      "byteOffset": 306304,
      "componentType": 5126,
      "count": 3428,
      "max": [
        1.9770359992980957,
        0.998046875
      ],
      "min": [
        0.0019530057907104492,
        0.001953125
      ],
      "type": "VEC2"
    },
    {
      "bufferView": 0,
      "byteOffset": 500496,
      "componentType": 5125,
      "count": 9768,
      "type": "SCALAR"
    },
    {
      "bufferView": 2,
      "byteOffset": 1001184,
      "componentType": 5126,
      "count": 421,
      "max": [
        1.303769826889038,
        3.726325035095215,
        5.655961036682129
      ],
      "min": [
        -1.303769826889038,
        0.6263660192489624,
        -5.655961036682129
      ],
      "type": "VEC3"
    },
    {
      "bufferView": 2,
      "byteOffset": 1006236,
      "componentType": 5126,
      "count": 421,
      "max": [
        1.0,
        1.0,
        1.0
      ],
      "min": [
        -1.0,
        -0.0750705674290657,
        -1.0
      ],
      "type": "VEC3"
    },
    {
      "bufferView": 3,
      "byteOffset": 667456,
      "componentType": 5126,
      "count": 421,
      "max": [
        1.0,
        1.0,
        1.0,
        1.0
      ],
      "min": [
        -1.0,
        -1.0,
        -1.0,
        -1.0
      ],
      "type": "VEC4"
    },
    {
      "bufferView": 1,
      "byteOffset": 333728,
      "componentType": 5126,
      "count": 421,
      "max": [
        1.9747109413146973,
        0.998046875
      ],
      "min": [
        0.0019528865814208984,
        0.001953125
      ],
      "type": "VEC2"
    },
    {
      "bufferView": 0,
      "byteOffset": 539568,
      "componentType": 5125,
      "count": 969,
      "type": "SCALAR"
    }
  ],
  "asset": {
    "extras": {
      "author": "Kira (https://sketchfab.com/GalaninaKira)",
      "license": "CC-BY-4.0 (http://creativecommons.org/licenses/by/4.0/)",
      "source": "https://sketchfab.com/3d-models/wagon-7f4f0807957342ab8339459b4d40f615",
      "title": "Wagon"
    },
    "generator": "Sketchfab-16.16.0",
    "version": "2.0"
  },
  "bufferViews": [
    {
      "buffer": 0,
      "byteLength": 543444,
      "name": "floatBufferViews",
      "target": 34963
    },
    {
      "buffer": 0,
      "byteLength": 337096,
      "byteOffset": 543444,
      "byteStride": 8,
      "name": "floatBufferViews",
      "target": 34962
    },
    {
      "buffer": 0,
      "byteLength": 1011288,
      "byteOffset": 880540,
      "byteStride": 12,
      "name": "floatBufferViews",
      "target": 34962
    },
    {
      "buffer": 0,
      "byteLength": 674192,
      "byteOffset": 1891828,
      "byteStride": 16,
      "name": "floatBufferViews",
      "target": 34962
    }
  ],
  "buffers": [
    {
      "byteLength": 2566020,
      "uri": "scene.bin"
    }
  ],
  "extensionsUsed": [
    "KHR_materials_specular"
  ],
  "images": [
    {
      "uri": "textures/Wagon_baseColor.png"
    },
    {
      "uri": "textures/Wagon_metallicRoughness.png"
    },
    {
      "uri": "textures/Wagon_normal.png"
    },
    {
      "uri": "textures/Cistern_baseColor.png"
    },
    {
      "uri": "textures/Cistern_metallicRoughness.png"
    },
    {
      "uri": "textures/Cistern_normal.png"
    },
    {
      "uri": "textures/Alpha_baseColor.png"
    },
    {
      "uri": "textures/Alpha_metallicRoughness.png"
    },
    {
      "uri": "textures/Alpha_normal.png"
    }
  ],
  "materials": [
    {
      "doubleSided": true,
      "name": "Wagon",
      "normalTexture": {
        "index": 2
      },
      "pbrMetallicRoughness": {
        "baseColorTexture": {
          "index": 0
        },
        "metallicFactor": 0.0,
        "metallicRoughnessTexture": {
          "index": 1
        }
      }
    },
    {
      "doubleSided": true,
      "extensions": {
        "KHR_materials_specular": {
          "specularColorFactor": [
            1.0,
            1.0,
            1.0
          ],
          "specularFactor": 0.27276273603881457
        }
      },
      "name": "Cistern",
      "normalTexture": {
        "index": 5
      },
      "pbrMetallicRoughness": {
        "baseColorTexture": {
          "index": 3
        },
        "metallicRoughnessTexture": {
          "index": 4
        }
      }
    },
    {
      "doubleSided": true,
      "name": "Alpha",
      "normalTexture": {
        "index": 8
      },
      "pbrMetallicRoughness": {
        "baseColorTexture": {
          "index": 6
        },
        "metallicRoughnessTexture": {
          "index": 7
        }
      }
    }
  ],
  "meshes": [
    {
      "name": "WagonLow_Wagon_0",
      "primitives": [
        {
          "attributes": {
            "NORMAL": 1,
            "POSITION": 0,
            "TANGENT": 2,
            "TEXCOORD_0": 3
          },
          "indices": 4,
          "material": 0,
          "mode": 4
        }
      ]
    },
    {
      "name": "WagonLow_Cistern_0",
      "primitives": [
        {
          "attributes": {
            "NORMAL": 6,
            "POSITION": 5,
            "TANGENT": 7,
            "TEXCOORD_0": 8
          },
          "indices": 9,
          "material": 1,
          "mode": 4
        }
      ]
    },
    {
      "name": "WagonLow_Alpha_0",
      "primitives": [
        {
          "attributes": {
            "NORMAL": 11,
            "POSITION": 10,
            "TANGENT": 12,
            "TEXCOORD_0": 13
          },
          "indices": 14,
          "material": 2,
          "mode": 4
        }
      ]
    }
  ],
  "nodes": [
    {
      "children": [
        1
      ],
      "matrix": [
        1.0,
        0.0,
        0.0,
        0.0,
        0.0,
        2.220446049250313e-16,
        -1.0,
        0.0,
        0.0,
        1.0,
        2.220446049250313e-16,
        0.0,
        0.0,
        0.0,
        0.0,
        1.0
      ],
      "name": "Sketchfab_model"
    },
    {
      "children": [
        2
      ],
      "matrix": [
        0.009999999776482582,
        0.0,
        0.0,
        0.0,
        0.0,
        0.0,
        0.009999999776482582,
        0.0,
        0.0,
        -0.009999999776482582,
        0.0,
        0.0,
        0.0,
        0.0,
        0.0,
        1.0
      ],
      "name": "51fbc680718844da9998fec71b0f6c53.fbx"
    },
    {
      "children": [
        3
      ],
      "name": "RootNode"
    },
    {
      "children": [
        4,
        5,
        6
      ],
      "matrix": [
        100.0,
        0.0,
        0.0,
        0.0,
        0.0,
        99.99999999999866,
        1.6292067073209114e-05,
        0.0,
        0.0,
        -1.6292067073209114e-05,
        99.99999999999866,
        0.0,
        0.0,
        0.0,
        0.0,
        1.0
      ],
      "name": "WagonLow"
    },
    {
      "mesh": 0,
      "name": "WagonLow_Wagon_0"
    },
    {
      "mesh": 1,
      "name": "WagonLow_Cistern_0"
    },
    {
      "mesh": 2,
      "name": "WagonLow_Alpha_0"
    }
  ],
  "samplers": [
    {
      "magFilter": 9729,
      "minFilter": 9987,
      "wrapS": 10497,
      "wrapT": 10497
    }
  ],
  "scene": 0,
  "scenes": [
    {
      "name": "Sketchfab_Scene",
      "nodes": [
        0
      ]
    }
  ],
  "textures": [
    {
      "sampler": 0,
      "source": 0
    },
    {
      "sampler": 0,
      "source": 1
    },
    {
      "sampler": 0,
      "source": 2
    },
    {
      "sampler": 0,
      "source": 3
    },
    {
      "sampler": 0,
      "source": 4
    },
    {
      "sampler": 0,
      "source": 5
    },
    {
      "sampler": 0,
      "source": 6
    },
    {
      "sampler": 0,
      "source": 7
    },
    {
      "sampler": 0,
      "source": 8
    }
  ]
}
