{
  "accessors": [
    {
      "bufferView": 2,
      "componentType": 5126,
      "count": 6178,
      "max": [
        1.369361162185669,
        5.292052268981934,
        0.3903750777244568
      ],
      "min": [
        -1.730436086654663,
        -0.1564207673072815,
        -0.06120826303958893
      ],
      "type": "VEC3"
    },
    {
      "bufferView": 2,
      "byteOffset": 74136,
      "componentType": 5126,
      "count": 6178,
      "max": [
        1.0,
        1.0,
        1.0
      ],
      "min": [
        -1.0,
        -1.0,
        -1.0
      ],
      "type": "VEC3"
    },
    {
      "bufferView": 3,
      "componentType": 5126,
      "count": 6178,
      "max": [
        0.9999975562095642,
        1.0,
        1.0,
        1.0
      ],
      "min": [
        -1.0,
        -1.0,
        -1.0,
        1.0
      ],
      "type": "VEC4"
    },
    {
      "bufferView": 1,
      "componentType": 5126,
      "count": 6178,
      "max": [
        0.8568400144577026,
        0.9998602867126465
      ],
      "min": [
        -0.0021202191710472107,
        0.00013224703434389085
      ],
      "type": "VEC2"
    },
    {
      "bufferView": 1,
      "byteOffset": 49424,
      "componentType": 5126,
      "count": 6178,
      "max": [
        0.8568400144577026,
        0.9998602867126465
      ],
      "min": [
        -0.0021202191710472107,
        0.00013224703434389085
      ],
      "type": "VEC2"
    },
    {
      "bufferView": 1,
      "byteOffset": 98848,
      "componentType": 5126,
      "count": 6178,
      "max": [
        0.8568400144577026,
        0.9998602867126465
      ],
      "min": [
        -0.0021202191710472107,
        0.00013224703434389085
      ],
      "type": "VEC2"
    },
    {
      "bufferView": 0,
      "componentType": 5125,
      "count": 10236,
      "type": "SCALAR"
    }
  ],
  "asset": {
    "extras": {
      "author": "ForevereQ (https://sketchfab.com/ForevereQ)",
      "license": "CC-BY-4.0 (http://creativecommons.org/licenses/by/4.0/)",
      "source": "https://sketchfab.com/3d-models/parts-rail-railway-track-1b5f2bdad1aa4fd0bef9dec97769fbd9",
      "title": "Parts rail Railway track"
    },
    "generator": "Sketchfab-16.9.0",
    "version": "2.0"
  },
  "bufferViews": [
    {
      "buffer": 0,
      "byteLength": 40944,
      "name": "floatBufferViews",
      "target": 34963
    },
    {
      "buffer": 0,
      "byteLength": 148272,
      "byteOffset": 40944,
      "byteStride": 8,
      "name": "floatBufferViews",
      "target": 34962
    },
    {
      "buffer": 0,
      "byteLength": 148272,
      "byteOffset": 189216,
      "byteStride": 12,
      "name": "floatBufferViews",
      "target": 34962
    },
    {
      "buffer": 0,
      "byteLength": 98848,
      "byteOffset": 337488,
      "byteStride": 16,
      "name": "floatBufferViews",
      "target": 34962
    }
  ],
  "buffers": [
    {
      "byteLength": 436336,
      "uri": "scene.bin"
    }
  ],
  "images": [
    {
      "uri": "textures/Material_baseColor.png"
    },
    {
      "uri": "textures/Material_metallicRoughness.png"
    },
    {
      "uri": "textures/Material_normal.png"
    }
  ],
  "materials": [
    {
      "doubleSided": true,
      "name": "Material",
      "normalTexture": {
        "index": 2
      },
      "pbrMetallicRoughness": {
        "baseColorTexture": {
          "index": 0
        },
        "metallicRoughnessTexture": {
          "index": 1
        }
      }
    }
  ],
  "meshes": [
    {
      "name": "Cube.007_Material_0",
      "primitives": [
        {
          "attributes": {
            "NORMAL": 1,
            "POSITION": 0,
            "TANGENT": 2,
            "TEXCOORD_0": 3,
            "TEXCOORD_1": 4,
            "TEXCOORD_2": 5
          },
          "indices": 6,
          "material": 0,
          "mode": 4
        }
      ]
    }
  ],
  "nodes": [
    {
      "children": [
        1
      ],
      "matrix": [
        0.7995972633361816,
        0.0,
        0.0,
        0.0,
        0.0,
        1.7754625843661867e-16,
        -0.7995972633361816,
        0.0,
        0.0,
        0.7995972633361816,
        1.7754625843661867e-16,
        0.0,
        0.0,
        0.0,
        0.0,
        1.0
      ],
      "name": "Sketchfab_model"
    },
    {
      "children": [
        2
      ],
      "matrix": [
        0.009999999776482582,
        0.0,
        0.0,
        0.0,
        0.0,
        0.0,
        0.009999999776482582,
        0.0,
        0.0,
        -0.009999999776482582,
        0.0,
        0.0,
        0.0,
        0.0,
        0.0,
        1.0
      ],
      "name": "1f085a609c9544aa94ff4475241b8c41.fbx"
    },
    {
      "children": [
        3
      ],
      "name": "RootNode"
    },
    {
      "children": [
        4
      ],
      "matrix": [
        100.0,
        0.0,
        0.0,
        0.0,
        0.0,
        -1.629206793918314e-05,
        -99.99999999999868,
        0.0,
        0.0,
        99.99999999999868,
        -1.629206793918314e-05,
        0.0,
        11.428946495056152,
        -38.31835174560547,
        76.23965454101563,
        1.0
      ],
      "name": "Cube.007"
    },
    {
      "mesh": 0,
      "name": "Cube.007_Material_0"
    }
  ],
  "samplers": [
    {
      "magFilter": 9729,
      "minFilter": 9987,
      "wrapS": 10497,
      "wrapT": 10497
    }
  ],
  "scene": 0,
  "scenes": [
    {
      "name": "Sketchfab_Scene",
      "nodes": [
        0
      ]
    }
  ],
  "textures": [
    {
      "sampler": 0,
      "source": 0
    },
    {
      "sampler": 0,
      "source": 1
    },
    {
      "sampler": 0,
      "source": 2
    }
  ]
}
