{
	"asset":{
		"generator":"Khronos glTF Blender I/O v4.1.63",
		"version":"2.0"
	},
	"extensionsUsed":[
		"KHR_materials_specular",
		"KHR_materials_ior"
	],
	"scene":0,
	"scenes":[
		{
			"name":"Scene",
			"nodes":[
				0,
				1,
				2,
				3,
				4
			]
		}
	],
	"nodes":[
		{
			"mesh":0,
			"name":"Track_01polySurface161_lambert1_0",
			"scale":[
				1,
				1,
				0.7544738054275513
			],
			"translation":[
				-60.089630126953125,
				12.785772323608398,
				-0.8002486228942871
			]
		},
		{
			"name":"Track_01polySurface161_lambert1_0.002",
			"scale":[
				1,
				1,
				0.7544738054275513
			]
		},
		{
			"name":"Track_01polySurface161_lambert1_0.206",
			"scale":[
				1,
				1,
				0.7544738054275513
			]
		},
		{
			"mesh":1,
			"name":"Track_01polySurface161_lambert1_0.239",
			"scale":[
				1,
				1,
				0.7544738054275513
			]
		},
		{
			"mesh":2,
			"name":"Track_01polySurface161_lambert1_0.001",
			"scale":[
				1,
				1,
				0.7544738054275513
			],
			"translation":[
				31.954891204833984,
				11.839774131774902,
				1.8057302236557007
			]
		}
	],
	"materials":[
		{
			"doubleSided":true,
			"extensions":{
				"KHR_materials_specular":{
					"specularColorTexture":{
						"index":0
					}
				},
				"KHR_materials_ior":{
					"ior":1000
				}
			},
			"name":"lambert1",
			"normalTexture":{
				"index":1
			},
			"pbrMetallicRoughness":{
				"baseColorTexture":{
					"index":2
				},
				"metallicFactor":0,
				"metallicRoughnessTexture":{
					"index":3
				}
			}
		}
	],
	"meshes":[
		{
			"name":"Track_01polySurface161_lambert1_0",
			"primitives":[
				{
					"attributes":{
						"POSITION":0,
						"NORMAL":1,
						"TEXCOORD_0":2
					},
					"indices":3,
					"material":0
				}
			]
		},
		{
			"name":"Track_01polySurface161_lambert1_0.239",
			"primitives":[
				{
					"attributes":{
						"POSITION":4,
						"NORMAL":5,
						"TEXCOORD_0":6
					},
					"indices":7,
					"material":0
				}
			]
		},
		{
			"name":"Track_01polySurface161_lambert1_0.407",
			"primitives":[
				{
					"attributes":{
						"POSITION":8,
						"NORMAL":9,
						"TEXCOORD_0":10
					},
					"indices":11,
					"material":0
				}
			]
		}
	],
	"textures":[
		{
			"sampler":0,
			"source":0
		},
		{
			"sampler":0,
			"source":1
		},
		{
			"sampler":0,
			"source":2
		},
		{
			"sampler":0,
			"source":3
		}
	],
	"images":[
		{
			"mimeType":"image/png",
			"name":"lambert1_specularGlossiness",
			"uri":"lambert1_specularGlossiness.png"
		},
		{
			"mimeType":"image/png",
			"name":"lambert1_normal",
			"uri":"lambert1_normal.png"
		},
		{
			"mimeType":"image/png",
			"name":"lambert1_diffuse",
			"uri":"lambert1_diffuse.png"
		},
		{
			"mimeType":"image/png",
			"name":"lambert1_specularGlossiness",
			"uri":"lambert1_specularGlossiness-1.png"
		}
	],
	"accessors":[
		{
			"bufferView":0,
			"componentType":5126,
			"count":45869,
			"max":[
				20.22669792175293,
				4.289434432983398,
				344.034423828125
			],
			"min":[
				-480.3359069824219,
				-0.8301248550415039,
				-219.624755859375
			],
			"type":"VEC3"
		},
		{
			"bufferView":1,
			"componentType":5126,
			"count":45869,
			"type":"VEC3"
		},
		{
			"bufferView":2,
			"componentType":5126,
			"count":45869,
			"type":"VEC2"
		},
		{
			"bufferView":3,
			"componentType":5123,
			"count":113088,
			"type":"SCALAR"
		},
		{
			"bufferView":4,
			"componentType":5126,
			"count":3,
			"max":[
				-8.392210006713867,
				0.7947304248809814,
				53.03496170043945
			],
			"min":[
				-8.637786865234375,
				0.6807555556297302,
				53.03496170043945
			],
			"type":"VEC3"
		},
		{
			"bufferView":5,
			"componentType":5126,
			"count":3,
			"type":"VEC3"
		},
		{
			"bufferView":6,
			"componentType":5126,
			"count":3,
			"type":"VEC2"
		},
		{
			"bufferView":7,
			"componentType":5123,
			"count":3,
			"type":"SCALAR"
		},
		{
			"bufferView":8,
			"componentType":5126,
			"count":21,
			"max":[
				16.379257202148438,
				2.7960045337677,
				75
			],
			"min":[
				-19.77330207824707,
				-0.8301248550415039,
				-36.96503829956055
			],
			"type":"VEC3"
		},
		{
			"bufferView":9,
			"componentType":5126,
			"count":21,
			"type":"VEC3"
		},
		{
			"bufferView":10,
			"componentType":5126,
			"count":21,
			"type":"VEC2"
		},
		{
			"bufferView":11,
			"componentType":5123,
			"count":21,
			"type":"SCALAR"
		}
	],
	"bufferViews":[
		{
			"buffer":0,
			"byteLength":550428,
			"byteOffset":0,
			"target":34962
		},
		{
			"buffer":0,
			"byteLength":550428,
			"byteOffset":550428,
			"target":34962
		},
		{
			"buffer":0,
			"byteLength":366952,
			"byteOffset":1100856,
			"target":34962
		},
		{
			"buffer":0,
			"byteLength":226176,
			"byteOffset":1467808,
			"target":34963
		},
		{
			"buffer":0,
			"byteLength":36,
			"byteOffset":1693984,
			"target":34962
		},
		{
			"buffer":0,
			"byteLength":36,
			"byteOffset":1694020,
			"target":34962
		},
		{
			"buffer":0,
			"byteLength":24,
			"byteOffset":1694056,
			"target":34962
		},
		{
			"buffer":0,
			"byteLength":6,
			"byteOffset":1694080,
			"target":34963
		},
		{
			"buffer":0,
			"byteLength":252,
			"byteOffset":1694088,
			"target":34962
		},
		{
			"buffer":0,
			"byteLength":252,
			"byteOffset":1694340,
			"target":34962
		},
		{
			"buffer":0,
			"byteLength":168,
			"byteOffset":1694592,
			"target":34962
		},
		{
			"buffer":0,
			"byteLength":42,
			"byteOffset":1694760,
			"target":34963
		}
	],
	"samplers":[
		{
			"magFilter":9729,
			"minFilter":9987
		}
	],
	"buffers":[
		{
			"byteLength":1694804,
			"uri":"straightT.bin"
		}
	]
}
