{
	"asset":{
		"generator":"Khronos glTF Blender I/O v4.1.63",
		"version":"2.0"
	},
	"extensionsUsed":[
		"KHR_materials_specular",
		"KHR_materials_ior"
	],
	"scene":0,
	"scenes":[
		{
			"name":"Scene",
			"nodes":[
				0
			]
		}
	],
	"nodes":[
		{
			"mesh":0,
			"name":"Track_01polySurface161_lambert1_0.001",
			"translation":[
				82,
				-67,
				-62
			]
		}
	],
	"materials":[
		{
			"doubleSided":true,
			"extensions":{
				"KHR_materials_specular":{
					"specularColorTexture":{
						"index":0
					}
				},
				"KHR_materials_ior":{
					"ior":1000
				}
			},
			"name":"lambert1.003",
			"normalTexture":{
				"index":1
			},
			"pbrMetallicRoughness":{
				"baseColorTexture":{
					"index":2
				},
				"metallicFactor":0,
				"metallicRoughnessTexture":{
					"index":3
				}
			}
		}
	],
	"meshes":[
		{
			"name":"Track_01polySurface161_lambert1_0.419",
			"primitives":[
				{
					"attributes":{
						"POSITION":0,
						"NORMAL":1,
						"TEXCOORD_0":2
					},
					"indices":3,
					"material":0
				}
			]
		}
	],
	"textures":[
		{
			"sampler":0,
			"source":0
		},
		{
			"sampler":0,
			"source":1
		},
		{
			"sampler":0,
			"source":2
		},
		{
			"sampler":0,
			"source":3
		}
	],
	"images":[
		{
			"mimeType":"image/png",
			"name":"lambert1_specularGlossiness",
			"uri":"lambert1_specularGlossiness.png"
		},
		{
			"mimeType":"image/png",
			"name":"lambert1_normal",
			"uri":"lambert1_normal.png"
		},
		{
			"mimeType":"image/png",
			"name":"lambert1_diffuse",
			"uri":"lambert1_diffuse.png"
		},
		{
			"mimeType":"image/png",
			"name":"lambert1_specularGlossiness",
			"uri":"lambert1_specularGlossiness-1.png"
		}
	],
	"accessors":[
		{
			"bufferView":0,
			"componentType":5126,
			"count":3411,
			"max":[
				20.22669792175293,
				4.28943395614624,
				75
			],
			"min":[
				-19.77330207824707,
				-0.8301248550415039,
				-75
			],
			"type":"VEC3"
		},
		{
			"bufferView":1,
			"componentType":5126,
			"count":3411,
			"type":"VEC3"
		},
		{
			"bufferView":2,
			"componentType":5126,
			"count":3411,
			"type":"VEC2"
		},
		{
			"bufferView":3,
			"componentType":5123,
			"count":8730,
			"type":"SCALAR"
		}
	],
	"bufferViews":[
		{
			"buffer":0,
			"byteLength":40932,
			"byteOffset":0,
			"target":34962
		},
		{
			"buffer":0,
			"byteLength":40932,
			"byteOffset":40932,
			"target":34962
		},
		{
			"buffer":0,
			"byteLength":27288,
			"byteOffset":81864,
			"target":34962
		},
		{
			"buffer":0,
			"byteLength":17460,
			"byteOffset":109152,
			"target":34963
		}
	],
	"samplers":[
		{
			"magFilter":9729,
			"minFilter":9987
		}
	],
	"buffers":[
		{
			"byteLength":126612,
			"uri":"Straight2.bin"
		}
	]
}
